<svg width="250" height="236" viewBox="0 0 250 236" fill="none" xmlns="http://www.w3.org/2000/svg">
    <path d="M125 235.293C194.035 235.293 250 202.981 250 163.122C250 123.262 194.035 90.9502 125 90.9502C55.9643 90.9502 0 123.262 0 163.122C0 202.981 55.9643 235.293 125 235.293Z" fill="#F5F5F5"/>
    <path d="M207.419 198.514C227.004 198.514 242.881 189.347 242.881 178.039C242.881 166.732 227.004 157.565 207.419 157.565C187.834 157.565 171.958 166.732 171.958 178.039C171.958 189.347 187.834 198.514 207.419 198.514Z" fill="#E0E0E0"/>
    <path d="M117.674 189.084L77.67 165.98L123.395 139.582L163.404 162.681L117.674 189.084Z" fill="#E0E0E0"/>
    <path d="M8.74449 181.939L60.3403 211.726L103.617 186.747L52.0208 156.959L8.74449 181.939Z" fill="#E0E0E0"/>
    <path d="M85.0385 41.9257V38.9931C85.0165 38.8237 84.9511 38.6628 84.8487 38.526C84.7464 38.3892 84.6105 38.2811 84.4541 38.2122L66.7473 28.0545C66.3253 27.8424 65.8595 27.7319 65.3872 27.7319C64.915 27.7319 64.4492 27.8424 64.0272 28.0545L13.138 57.2737C12.9816 57.3427 12.8457 57.4508 12.7434 57.5876C12.641 57.7244 12.5756 57.8853 12.5536 58.0547V60.9872C12.5751 61.1568 12.6403 61.318 12.7427 61.4548C12.8452 61.5917 12.9813 61.6997 13.138 61.7682L30.8395 71.9099C31.2615 72.122 31.7272 72.2325 32.1995 72.2325C32.6718 72.2325 33.1376 72.122 33.5596 71.9099L84.4488 42.6907C84.6054 42.6222 84.7416 42.5142 84.8441 42.3773C84.9465 42.2405 85.0117 42.0793 85.0332 41.9097L85.0385 41.9257Z" fill="#F0F0F0"/>
    <path d="M13.138 58.8197L30.8395 68.9774C31.2607 69.1919 31.7268 69.3038 32.1995 69.3038C32.6723 69.3038 33.1383 69.1919 33.5595 68.9774L84.4488 39.7581C85.1979 39.3278 85.1979 38.6319 84.4488 38.1962L66.7473 28.0545C66.3253 27.8424 65.8595 27.7319 65.3872 27.7319C64.9149 27.7319 64.4492 27.8424 64.0272 28.0545L13.138 57.2737C12.3889 57.6934 12.3889 58.3894 13.138 58.8197Z" fill="#FAFAFA"/>
    <path d="M32.1995 69.3068V72.234C31.7263 72.2409 31.2588 72.1295 30.8395 71.9099L13.1379 61.7788C12.9813 61.7104 12.8451 61.6024 12.7427 61.4655C12.6403 61.3286 12.5751 61.1675 12.5536 60.9979V58.06C12.564 57.9413 12.6022 57.8266 12.6651 57.7253C12.4579 58.1025 12.612 58.5382 13.1379 58.841L30.8395 68.9827C31.2576 69.2053 31.7259 69.3169 32.1995 69.3068Z" fill="#E0E0E0"/>
    <path d="M41.7091 44.5289L56.7065 53.0769L81.4791 38.8604L66.4869 30.3071L41.7091 44.5289Z" fill="#E0E0E0"/>
    <path d="M56.8765 52.4286L42.4103 44.1251C42.7862 42.8986 42.7583 41.5838 42.3306 40.3744L56.7065 48.5876C56.7065 48.5876 56.9827 49.4961 56.8765 52.4286Z" fill="white"/>
    <path d="M55.968 47.4348C56.3718 47.6957 56.7082 48.0482 56.9501 48.4636C57.192 48.879 57.3324 49.3456 57.3599 49.8255V52.6199C57.3599 53.5018 56.733 53.8577 55.968 53.4221L41.7303 45.2195V44.5288L55.798 52.5508C56.2602 52.8165 56.6321 52.5986 56.6321 52.0727V49.4802C56.6161 49.1922 56.5322 48.9122 56.3872 48.6628C56.2423 48.4135 56.0404 48.2021 55.798 48.0458L41.7303 39.9972V39.2109L55.968 47.4348Z" fill="#EBEBEB"/>
    <path d="M41.7303 39.2374L66.4869 25.0156L80.7406 33.197C81.1453 33.4581 81.4825 33.8113 81.7244 34.2278C81.9663 34.6442 82.1062 35.1121 82.1325 35.593V38.4033C82.1514 38.5752 82.1233 38.7489 82.0513 38.9061C81.9792 39.0633 81.8659 39.198 81.7234 39.2958L56.9509 53.5176C57.0907 53.4175 57.2017 53.2823 57.2726 53.1256C57.3435 52.9689 57.3718 52.7963 57.3546 52.6251V49.8254C57.3288 49.3451 57.1891 48.8778 56.947 48.4622C56.705 48.0465 56.3676 47.6943 55.9627 47.4347L41.7303 39.2374Z" fill="#FAFAFA"/>
    <path d="M56.9509 48.4495C57.2034 48.8595 57.3444 49.3283 57.3599 49.8095V52.6093C57.3771 52.7804 57.3488 52.953 57.2779 53.1097C57.207 53.2664 57.0961 53.4017 56.9562 53.5018L81.7288 39.28C81.8713 39.1821 81.9846 39.0474 82.0566 38.8902C82.1286 38.7331 82.1567 38.5593 82.1378 38.3875V35.5931C82.1223 35.1118 81.9813 34.643 81.7288 34.233L56.9509 48.4495Z" fill="#F0F0F0"/>
    <path d="M26.462 23.2518L26.3186 25.1431L43.0638 34.1267L43.441 33.0217L26.462 23.2518Z" fill="#EBEBEB"/>
    <path d="M43.2179 33.4627L26.9986 24.1019L24.1776 25.7276L40.7157 35.4018L43.2179 33.4627Z" fill="white"/>
    <path d="M37.6715 34.3977L36.0778 53.1936C36.0856 53.4058 36.1442 53.6131 36.2487 53.7979C36.3531 53.9828 36.5004 54.1399 36.6781 54.2561L46.0867 59.7015C46.2368 59.7845 46.4041 59.8318 46.5754 59.8397L40.7316 36.034C40.5611 36.0246 40.3946 35.9794 40.2428 35.9012L39.5681 35.508L37.6715 34.3977Z" fill="#E0E0E0"/>
    <path d="M41.4329 35.8799L43.1116 34.4402L44.3389 33.3777C44.4664 33.1758 44.6151 33.0271 44.5354 32.8464L50.3049 56.4768C50.3846 56.6415 50.4058 57.0081 50.1774 57.1462L47.2714 59.6325C47.0514 59.749 46.8017 59.7971 46.5542 59.7706L40.7104 35.9649C40.9543 36.007 41.2053 35.9775 41.4329 35.8799Z" fill="#F0F0F0"/>
    <path d="M44.3441 32.6923C44.6735 32.8836 44.5938 33.0961 44.3441 33.383L41.4329 35.8746C41.2476 35.9714 41.0416 36.022 40.8325 36.022C40.6235 36.022 40.4175 35.9714 40.2322 35.8746L37.6715 34.3977C37.3369 34.2064 37.2784 33.9302 37.5387 33.7814C37.7098 33.712 37.8945 33.6826 38.0786 33.6955C38.2627 33.7084 38.4415 33.7632 38.6012 33.8558L40.62 35.0246C40.6818 35.0558 40.75 35.0721 40.8193 35.0721C40.8885 35.0721 40.9567 35.0558 41.0185 35.0246L43.1435 33.1758C43.2551 33.112 43.2551 33.0111 43.1435 32.9473L26.462 23.2519L27.2589 22.7897L44.3441 32.6923Z" fill="#FAFAFA"/>
    <path d="M21.6275 24.1603L37.5812 33.3723V63.7284L21.6275 54.5111V24.1603Z" fill="#EBEBEB"/>
    <path d="M37.0659 33.877L21.6275 25.0156C20.6833 26.0167 19.4467 26.6935 18.0946 26.9494L33.4055 35.7736C33.4055 35.7736 34.3937 35.5399 37.0659 33.877Z" fill="white"/>
    <path d="M31.9233 35.7471C32.3834 35.9775 32.8909 36.0975 33.4055 36.0975C33.9201 36.0975 34.4276 35.9775 34.8877 35.7471L37.4802 34.2277C38.2984 33.7549 38.2984 32.9952 37.4802 32.5223L22.2703 23.7885L21.6275 24.1603L36.593 32.8039C36.7034 32.8361 36.8003 32.9032 36.8693 32.9952C36.9383 33.0871 36.9756 33.199 36.9756 33.3139C36.9756 33.4289 36.9383 33.5407 36.8693 33.6327C36.8003 33.7246 36.7034 33.7917 36.593 33.8239L34.1758 35.2158C33.8997 35.3546 33.595 35.4269 33.286 35.4269C32.9769 35.4269 32.6722 35.3546 32.3961 35.2158L17.4359 26.5669L16.7027 26.9866L31.9233 35.7471Z" fill="#FAFAFA"/>
    <path d="M16.7081 26.9867V57.3375L31.9233 66.0714C32.3834 66.3018 32.8909 66.4218 33.4055 66.4218C33.9201 66.4218 34.4276 66.3018 34.8877 66.0714L37.4909 64.5785C37.6601 64.5039 37.8061 64.3851 37.9136 64.2346C38.0211 64.0841 38.0861 63.9075 38.1018 63.7232V33.3724C38.0853 33.5572 38.0187 33.7341 37.9092 33.8838C37.7997 34.0336 37.6514 34.1507 37.4803 34.2224L34.8877 35.7471C34.4276 35.9776 33.9201 36.0976 33.4055 36.0976C32.8909 36.0976 32.3834 35.9776 31.9233 35.7471L16.7081 26.9867Z" fill="#EBEBEB"/>
    <path d="M33.4055 36.0712C33.9213 36.0814 34.4312 35.9607 34.8877 35.7206L37.4803 34.2224C37.6494 34.1492 37.7955 34.0315 37.9031 33.8818C38.0107 33.7321 38.0757 33.5561 38.0912 33.3724V63.7232C38.0755 63.9075 38.0105 64.0841 37.903 64.2346C37.7955 64.3851 37.6495 64.5039 37.4803 64.5786L34.8771 66.0714C34.4206 66.3115 33.9106 66.4322 33.3949 66.422L33.4055 36.0712Z" fill="#F0F0F0"/>
    <path d="M161.566 146.249C161.487 144.905 161.306 143.295 161.088 141.425C160.275 134.327 159.165 124.605 162.108 115.292C163.899 109.624 168.212 102.904 174.949 101.039C176.447 100.624 180.07 100.013 181.462 103.228C181.658 103.692 181.774 104.186 181.807 104.689C181.951 106.729 181.032 108.53 180.012 110.171C178.838 112.078 177.478 113.89 176.16 115.654C174.917 117.322 173.626 119.043 172.5 120.828C171.283 122.768 170.218 124.798 169.312 126.9L168.882 126.715C169.786 124.591 170.851 122.539 172.069 120.579C173.201 118.778 174.497 117.046 175.751 115.372C177.058 113.619 178.407 111.813 179.576 109.927C180.553 108.333 181.435 106.628 181.303 104.72C181.274 104.271 181.17 103.829 180.994 103.414C179.751 100.539 176.415 101.113 175.039 101.49C168.483 103.307 164.27 109.884 162.517 115.431C159.606 124.653 160.711 134.317 161.519 141.372C161.731 143.247 161.917 144.868 161.997 146.222L161.566 146.249Z" fill="#E77176"/>
    <path d="M162.044 153.973C162.009 153.978 161.973 153.978 161.938 153.973C161.836 153.954 161.74 153.91 161.658 153.846C161.576 153.783 161.51 153.701 161.465 153.607C161.373 153.344 161.373 153.057 161.465 152.794C161.54 152.285 161.54 151.768 161.465 151.259C161.465 150.972 161.418 150.669 161.418 150.398V147.099C161.842 141.173 163.578 135.415 166.502 130.242C169.094 125.732 171.963 122.73 175.533 120.786C177.458 119.728 179.568 119.052 181.749 118.794C183.674 118.581 185.609 119.092 187.178 120.228C188.799 121.508 189.526 123.702 188.916 125.44C188.485 126.656 187.502 127.565 186.498 128.388C184.708 129.849 182.753 131.156 180.867 132.42C179.3 133.483 177.679 134.545 176.165 135.714C171.533 139.289 167.647 143.739 164.727 148.81C164.249 149.633 163.798 150.483 163.383 151.333L163.213 151.668C163.047 151.971 162.902 152.285 162.778 152.608C162.751 152.677 162.724 152.821 162.687 152.985C162.66 153.288 162.564 153.581 162.406 153.841C162.306 153.928 162.177 153.976 162.044 153.973ZM182.514 119.234C182.275 119.234 182.036 119.234 181.791 119.266C179.675 119.513 177.627 120.17 175.762 121.2C172.277 123.097 169.466 126.045 166.916 130.476C164.032 135.584 162.317 141.269 161.896 147.12V150.387C161.896 150.642 161.896 150.919 161.944 151.211C162.029 151.767 162.029 152.333 161.944 152.89C161.886 153.062 161.886 153.248 161.944 153.421C161.957 153.448 161.977 153.471 162.001 153.49C162.024 153.508 162.052 153.521 162.082 153.527C162.176 153.331 162.241 153.121 162.273 152.906C162.298 152.758 162.334 152.613 162.379 152.47C162.509 152.129 162.661 151.797 162.836 151.477L163.001 151.147C163.426 150.287 163.883 149.431 164.361 148.597C165.354 146.878 166.456 145.224 167.66 143.646C170.04 140.536 172.817 137.752 175.921 135.363C177.451 134.195 179.077 133.106 180.649 132.054C182.53 130.795 184.469 129.493 186.249 128.048C187.194 127.278 188.124 126.412 188.517 125.307C189.048 123.75 188.395 121.779 186.923 120.616C185.653 119.668 184.098 119.181 182.514 119.234Z" fill="#E77176"/>
    <path d="M161.646 149.436H161.588C161.558 149.43 161.529 149.417 161.505 149.399C161.48 149.381 161.459 149.358 161.443 149.332C161.427 149.305 161.416 149.276 161.412 149.246C161.408 149.215 161.41 149.184 161.418 149.155C165.8 131.676 177.918 123.878 184.389 122.023C184.448 122.007 184.512 122.014 184.565 122.044C184.619 122.074 184.659 122.124 184.676 122.183C184.693 122.243 184.685 122.307 184.656 122.361C184.626 122.416 184.576 122.457 184.517 122.475C178.142 124.297 166.204 131.995 161.874 149.266C161.86 149.315 161.829 149.358 161.788 149.389C161.747 149.42 161.697 149.436 161.646 149.436Z" fill="#E77176"/>
    <path d="M161.619 135.093C161.557 135.087 161.499 135.057 161.458 135.01C161.418 134.962 161.397 134.9 161.402 134.838C162.799 115.962 175.145 105.618 176.548 104.508C176.572 104.488 176.599 104.473 176.629 104.464C176.659 104.455 176.69 104.452 176.721 104.456C176.751 104.459 176.781 104.469 176.808 104.484C176.835 104.5 176.859 104.52 176.877 104.545C176.896 104.569 176.911 104.597 176.919 104.626C176.928 104.656 176.931 104.687 176.927 104.718C176.924 104.748 176.914 104.778 176.899 104.805C176.884 104.832 176.864 104.855 176.84 104.875C175.453 105.974 163.25 116.196 161.874 134.875C161.868 134.937 161.838 134.994 161.79 135.034C161.743 135.075 161.682 135.096 161.619 135.093Z" fill="#E77176"/>
    <path d="M160.148 69.2643L130.605 52.2162C130.376 52.0522 130.108 51.9516 129.828 51.9245C129.549 51.8975 129.266 51.9449 129.011 52.0622L126.886 53.2894C126.652 53.452 126.466 53.6743 126.348 53.9331C126.229 54.1919 126.182 54.4777 126.211 54.7609V135.624C126.254 136.412 126.483 137.178 126.878 137.861C127.273 138.544 127.824 139.125 128.485 139.555L158.023 156.582C158.251 156.747 158.518 156.848 158.798 156.876C159.078 156.904 159.361 156.858 159.617 156.741L161.742 155.509C161.973 155.345 162.156 155.123 162.272 154.866C162.389 154.608 162.435 154.324 162.406 154.043V73.1956C162.365 72.4091 162.139 71.6433 161.746 70.9603C161.354 70.2773 160.807 69.6963 160.148 69.2643Z" fill="#263238"/>
    <path d="M132.576 137.01L130.451 138.237V144.963C130.461 145.16 130.518 145.352 130.617 145.523C130.716 145.693 130.854 145.838 131.019 145.946L132.012 146.52C132.189 146.609 132.383 146.655 132.581 146.655C132.778 146.655 132.973 146.609 133.149 146.52L134.143 145.946C134.496 145.718 134.769 145.386 134.924 144.995L136.842 139.47L132.576 137.01Z" fill="#263238"/>
    <path d="M130.451 144.963C130.461 145.16 130.518 145.352 130.617 145.523C130.716 145.693 130.854 145.839 131.019 145.946L132.012 146.52C132.081 146.561 132.158 146.587 132.238 146.594C132.318 146.602 132.399 146.591 132.474 146.563C132.549 146.535 132.617 146.49 132.672 146.432C132.727 146.374 132.769 146.304 132.793 146.228L134.701 140.697L130.451 138.238V144.963Z" fill="#37474F"/>
    <path d="M153.89 149.277L151.765 150.509V157.23C151.774 157.427 151.83 157.62 151.928 157.791C152.026 157.963 152.163 158.109 152.328 158.218L153.327 158.792C153.502 158.881 153.696 158.927 153.892 158.927C154.089 158.927 154.283 158.881 154.458 158.792L155.457 158.218C155.81 157.99 156.083 157.658 156.238 157.267L158.15 151.737L153.89 149.277Z" fill="#263238"/>
    <path d="M151.765 157.23C151.774 157.427 151.83 157.62 151.928 157.791C152.026 157.963 152.163 158.109 152.328 158.218L153.327 158.792C153.395 158.833 153.472 158.859 153.552 158.866C153.632 158.874 153.713 158.863 153.788 158.835C153.863 158.807 153.931 158.762 153.986 158.704C154.041 158.646 154.083 158.576 154.108 158.5L156.025 152.969L151.775 150.51L151.765 157.23Z" fill="#37474F"/>
    <path d="M128.623 53.5071L158.161 70.5074C158.822 70.939 159.373 71.5203 159.768 72.2042C160.163 72.8881 160.391 73.6554 160.435 74.444V155.307C160.491 155.591 160.457 155.885 160.337 156.149C160.218 156.413 160.018 156.632 159.768 156.777C159.517 156.922 159.227 156.984 158.939 156.956C158.651 156.928 158.379 156.81 158.161 156.619L128.623 139.587C127.962 139.156 127.413 138.576 127.019 137.893C126.624 137.21 126.397 136.443 126.355 135.656V54.814C126.298 54.5305 126.331 54.2363 126.451 53.9729C126.57 53.7095 126.769 53.4901 127.019 53.3458C127.27 53.2014 127.559 53.1394 127.847 53.1683C128.135 53.1973 128.406 53.3158 128.623 53.5071Z" fill="#37474F"/>
    <path d="M85.7292 164.035L117.679 182.481L162.411 156.656L160.281 155.424L128.331 136.978L85.7292 161.576V164.035Z" fill="#455A64"/>
    <path d="M117.679 182.481V180.021L162.411 154.197V156.656L117.679 182.481Z" fill="#263238"/>
    <path d="M117.881 178.9L117.557 178.682C123.225 170.102 123.188 155.28 122.726 151.561C122.689 151.312 122.662 151.158 122.657 151.099L123.045 151.036C123.045 151.152 123.087 151.291 123.109 151.455C123.523 154.085 125.866 168.37 128.639 172.706L128.31 172.918C126.115 169.513 124.24 160.322 123.3 155.02C123.358 161.039 122.482 171.978 117.881 178.9Z" fill="#FAFAFA"/>
    <path d="M136.539 165.799C136.055 165.656 124.761 162.234 123.72 157.251L124.107 157.172C125.095 161.926 136.533 165.39 136.65 165.427L136.539 165.799Z" fill="#FAFAFA"/>
    <path d="M125.138 163.78L124.851 162.564C124.812 162.34 124.698 162.137 124.528 161.986C124.358 161.836 124.143 161.747 123.916 161.735C123.729 161.708 123.538 161.738 123.369 161.823C123.2 161.907 123.061 162.042 122.97 162.208L122.604 162.054C122.727 161.811 122.922 161.612 123.163 161.484C123.404 161.357 123.678 161.307 123.948 161.342C124.143 161.354 124.334 161.408 124.507 161.499C124.68 161.591 124.832 161.718 124.952 161.873C125.016 161.369 125.273 160.91 125.669 160.593C125.819 160.514 125.987 160.476 126.157 160.481C126.326 160.487 126.491 160.536 126.636 160.625L126.461 160.975C126.372 160.918 126.271 160.885 126.165 160.878C126.06 160.872 125.955 160.892 125.86 160.938C125.409 161.193 125.234 162.176 125.207 162.532L125.138 163.78Z" fill="#FAFAFA"/>
    <path d="M126.248 167.834L125.898 166.729C125.499 165.48 124.835 164.763 124.049 164.715C123.72 164.709 123.397 164.799 123.119 164.973C122.84 165.148 122.619 165.4 122.482 165.698L122.126 165.528C122.294 165.155 122.569 164.841 122.916 164.624C123.263 164.407 123.667 164.299 124.075 164.312C124.548 164.338 125.361 164.593 125.967 165.826C126.1 164.854 126.498 163.292 127.523 162.638C127.891 162.437 128.305 162.333 128.725 162.338C129.144 162.342 129.556 162.455 129.919 162.665L129.755 163.021C129.45 162.841 129.105 162.742 128.751 162.733C128.398 162.725 128.048 162.808 127.736 162.973C126.37 163.823 126.28 166.633 126.28 166.665L126.248 167.834Z" fill="#FAFAFA"/>
    <path d="M121.451 170.533L121.1 170.352C121.887 168.838 123.613 167.749 125.111 167.823C125.429 167.827 125.742 167.902 126.027 168.043C126.312 168.183 126.562 168.386 126.758 168.636C126.903 167.872 127.2 167.144 127.633 166.498C128.066 165.852 128.625 165.299 129.276 164.875C129.976 164.41 130.783 164.133 131.621 164.071C132.458 164.009 133.297 164.163 134.058 164.519L133.904 164.875C133.203 164.551 132.431 164.411 131.662 164.468C130.892 164.526 130.149 164.779 129.505 165.204C128.816 165.651 128.241 166.252 127.826 166.961C127.411 167.669 127.167 168.465 127.114 169.284V170.288L126.742 169.353C126.619 169.021 126.398 168.734 126.107 168.531C125.817 168.328 125.471 168.218 125.117 168.216C123.741 168.147 122.174 169.146 121.451 170.533Z" fill="#FAFAFA"/>
    <path d="M119.294 176.398L118.949 176.207C119.427 175.335 121.972 170.958 124.984 170.166C125.409 170.044 125.855 170.014 126.293 170.077C126.731 170.14 127.15 170.296 127.523 170.533L127.321 170.867C126.992 170.659 126.623 170.523 126.238 170.467C125.852 170.411 125.459 170.437 125.085 170.543C122.875 171.128 120.59 174.06 119.294 176.398Z" fill="#FAFAFA"/>
    <path d="M158.15 129.599V132.059L117.679 155.424L85.7292 136.978V134.519L126.2 111.154L158.15 129.599Z" fill="#263238"/>
    <path d="M158.15 129.599L117.679 152.964L85.7292 134.519L126.2 111.154L158.15 129.599Z" fill="#455A64"/>
    <path d="M158.15 102.548V105.002L117.679 128.372L85.7292 109.921V107.467L126.2 84.0969L158.15 102.548Z" fill="#263238"/>
    <path d="M158.15 102.548L117.679 125.912L85.7292 107.467L126.2 84.0969L158.15 102.548Z" fill="#455A64"/>
    <path d="M117.541 93.8296L88.0031 76.8027C87.7751 76.6379 87.5076 76.5363 87.2277 76.5083C86.9477 76.4803 86.6654 76.5269 86.4093 76.6433C86.0268 76.8612 84.6668 77.6527 84.2843 77.8706C84.0516 78.0339 83.8668 78.2564 83.7491 78.5152C83.6314 78.7739 83.5851 79.0594 83.6149 79.3421V160.184C83.6583 160.972 83.8868 161.738 84.2818 162.421C84.6769 163.104 85.2274 163.685 85.8887 164.115L115.427 181.147C115.655 181.312 115.922 181.414 116.202 181.442C116.482 181.47 116.764 181.423 117.02 181.307C117.403 181.083 118.774 180.297 119.145 180.069C119.379 179.907 119.566 179.686 119.685 179.428C119.805 179.17 119.853 178.885 119.825 178.602V97.7662C119.782 96.9764 119.552 96.2082 119.155 95.5241C118.758 94.84 118.205 94.2594 117.541 93.8296Z" fill="#263238"/>
    <path opacity="0.2" d="M117.679 106.24L119.815 105.007V97.6227L117.674 98.8552L117.679 106.24Z" fill="black"/>
    <path opacity="0.2" d="M160.286 81.6425L162.422 80.4153V73.0308L160.281 74.2633L160.286 81.6425Z" fill="black"/>
    <path d="M89.99 161.576L87.8649 162.803V169.529C87.8757 169.726 87.9328 169.917 88.0315 170.088C88.1303 170.259 88.268 170.404 88.4334 170.511L89.4268 171.085C89.6031 171.174 89.7978 171.221 89.9953 171.221C90.1928 171.221 90.3875 171.174 90.5637 171.085L91.5572 170.511C91.9088 170.284 92.1816 169.954 92.3381 169.566L94.256 164.035L89.99 161.576Z" fill="#263238"/>
    <path d="M87.8596 169.529C87.8704 169.726 87.9275 169.917 88.0262 170.088C88.125 170.259 88.2627 170.404 88.4281 170.511L89.4215 171.085C89.4902 171.127 89.5673 171.152 89.6472 171.16C89.7271 171.167 89.8076 171.156 89.8828 171.128C89.9579 171.1 90.0257 171.055 90.0811 170.997C90.1365 170.939 90.178 170.869 90.2025 170.793L92.1203 165.263L87.8703 162.803L87.8596 169.529Z" fill="#37474F"/>
    <path d="M111.288 173.874L109.163 175.101V181.827C109.173 182.024 109.229 182.215 109.327 182.386C109.425 182.557 109.562 182.702 109.726 182.81L110.725 183.384C110.9 183.473 111.094 183.519 111.291 183.519C111.487 183.519 111.681 183.473 111.857 183.384L112.855 182.81C113.206 182.581 113.478 182.252 113.636 181.864L115.549 176.334L111.288 173.874Z" fill="#263238"/>
    <path d="M109.163 181.801C109.173 181.997 109.229 182.189 109.327 182.36C109.425 182.53 109.562 182.676 109.726 182.783L110.725 183.357C110.794 183.399 110.871 183.424 110.951 183.432C111.031 183.439 111.111 183.428 111.186 183.4C111.261 183.372 111.329 183.327 111.385 183.269C111.44 183.211 111.481 183.141 111.506 183.065L113.418 177.535L109.168 175.075L109.163 181.801Z" fill="#37474F"/>
    <path d="M85.8674 78.0353L115.411 95.0622C116.071 95.4941 116.621 96.0756 117.015 96.7595C117.409 97.4434 117.637 98.2106 117.679 98.9988V182.481C117.679 182.481 116.038 181.509 115.411 181.147L85.8727 164.115C85.2114 163.685 84.6609 163.104 84.2659 162.421C83.8708 161.738 83.6423 160.972 83.5989 160.184V79.3422C83.5421 79.0587 83.5757 78.7645 83.695 78.5011C83.8143 78.2377 84.0132 78.0183 84.2638 77.874C84.5143 77.7296 84.8038 77.6676 85.0916 77.6965C85.3793 77.7255 85.6506 77.844 85.8674 78.0353Z" fill="#37474F"/>
    <path opacity="0.2" d="M115.411 95.0622L85.8674 78.0353C85.6506 77.844 85.3793 77.7255 85.0916 77.6965C84.8038 77.6676 84.5143 77.7296 84.2638 77.874C84.0132 78.0183 83.8143 78.2377 83.695 78.5011C83.5757 78.7645 83.5421 79.0587 83.5989 79.3422V86.562L117.679 106.219V98.9988C117.637 98.2106 117.409 97.4434 117.015 96.7595C116.621 96.0756 116.071 95.4941 115.411 95.0622Z" fill="black"/>
    <path d="M156.02 102.744C155.968 102.743 155.919 102.722 155.883 102.685C155.846 102.648 155.825 102.599 155.823 102.548V78.2903L132.687 91.6461C132.665 91.6602 132.641 91.6696 132.616 91.6737C132.59 91.6779 132.564 91.6766 132.539 91.6701C132.514 91.6636 132.491 91.652 132.471 91.636C132.45 91.62 132.434 91.5999 132.422 91.5771C132.408 91.5548 132.399 91.5301 132.395 91.5043C132.392 91.4786 132.393 91.4524 132.399 91.4272C132.406 91.402 132.417 91.3783 132.433 91.3575C132.449 91.3368 132.468 91.3193 132.491 91.3061L155.951 77.7803C155.98 77.7619 156.015 77.7522 156.049 77.7522C156.084 77.7522 156.118 77.7619 156.148 77.7803C156.177 77.7979 156.201 77.8228 156.218 77.8526C156.235 77.8824 156.243 77.9161 156.243 77.9503V102.548C156.243 102.576 156.238 102.604 156.226 102.629C156.215 102.655 156.198 102.678 156.177 102.697C156.155 102.716 156.13 102.729 156.103 102.738C156.076 102.746 156.048 102.748 156.02 102.744Z" fill="#FAFAFA"/>
    <path d="M151.759 96.5921H151.701C151.65 96.5807 151.606 96.5497 151.578 96.5059C151.55 96.4621 151.541 96.409 151.552 96.3583L155.515 79.1934L147.653 92.8095C147.641 92.8322 147.624 92.8522 147.604 92.8683C147.584 92.8845 147.561 92.8963 147.536 92.9033C147.511 92.9102 147.485 92.9121 147.459 92.9088C147.434 92.9054 147.409 92.897 147.387 92.8839C147.364 92.8712 147.344 92.8541 147.328 92.8335C147.312 92.8129 147.3 92.7893 147.293 92.7641C147.286 92.7388 147.284 92.7125 147.288 92.6865C147.291 92.6606 147.299 92.6356 147.313 92.6129L155.813 77.8546C155.837 77.814 155.875 77.7833 155.92 77.7678C155.964 77.7523 156.013 77.7529 156.057 77.7696C156.101 77.7874 156.137 77.8202 156.158 77.8621C156.179 77.904 156.185 77.9523 156.174 77.998L151.924 96.4486C151.914 96.4865 151.894 96.5205 151.864 96.5462C151.835 96.5718 151.798 96.5878 151.759 96.5921Z" fill="#FAFAFA"/>
    <path d="M143.243 90.4668C143.216 90.467 143.189 90.4613 143.165 90.4504C143.14 90.4394 143.118 90.4233 143.1 90.4031C143.063 90.3663 143.043 90.3167 143.043 90.265C143.043 90.2132 143.063 90.1636 143.1 90.1268L155.882 77.8282C155.919 77.7919 155.968 77.7715 156.02 77.7715C156.072 77.7715 156.121 77.7919 156.158 77.8282C156.195 77.8659 156.215 77.9164 156.215 77.969C156.215 78.0216 156.195 78.0721 156.158 78.1098L143.376 90.4031C143.359 90.422 143.339 90.4373 143.316 90.4483C143.293 90.4592 143.268 90.4655 143.243 90.4668Z" fill="#FAFAFA"/>
    <path d="M156.02 98.8181C155.968 98.8167 155.919 98.7956 155.883 98.759C155.846 98.7224 155.825 98.6732 155.823 98.6215C155.823 95.4021 152.232 95.1843 152.078 95.179C152.049 95.1769 152.021 95.1687 151.995 95.1549C151.97 95.1412 151.947 95.1223 151.929 95.0993C151.913 95.0767 151.901 95.0507 151.896 95.0231C151.89 94.9956 151.891 94.9672 151.897 94.9399C152.028 94.2822 151.984 93.6016 151.769 92.9665C151.553 92.3314 151.174 91.7643 150.67 91.322C150.486 91.1382 150.265 90.9957 150.021 90.9041C149.777 90.8125 149.517 90.7739 149.257 90.7908C149.119 90.8142 148.987 90.8672 148.87 90.946C148.754 91.0248 148.656 91.1277 148.582 91.2477C148.56 91.2864 148.526 91.3165 148.484 91.3329C148.443 91.3493 148.397 91.3511 148.354 91.338C148.312 91.3249 148.275 91.2978 148.25 91.2611C148.225 91.2245 148.213 91.1804 148.216 91.1361C148.216 91.0139 148.434 88.1504 145.915 87.8688C145.883 87.8649 145.852 87.8532 145.825 87.8347C145.799 87.8162 145.777 87.7914 145.761 87.7626C145.747 87.7347 145.739 87.7037 145.739 87.6723C145.739 87.6409 145.747 87.6099 145.761 87.582C145.761 87.582 146.877 85.4941 146.447 84.4688C146.397 84.3484 146.32 84.2414 146.221 84.1565C146.122 84.0715 146.005 84.0111 145.878 83.98C145.853 83.9734 145.83 83.9616 145.809 83.9455C145.789 83.9295 145.772 83.9094 145.759 83.8865C145.747 83.8636 145.739 83.8384 145.737 83.8125C145.734 83.7865 145.737 83.7604 145.745 83.7357C145.761 83.6864 145.796 83.6452 145.841 83.6205C145.887 83.5957 145.94 83.5894 145.99 83.6028C146.173 83.6499 146.342 83.7394 146.484 83.8639C146.627 83.9885 146.737 84.1447 146.808 84.32C147.217 85.2922 146.526 86.902 146.229 87.5076C148.184 87.8848 148.545 89.7283 148.598 90.642C148.773 90.518 148.972 90.4328 149.183 90.3923C149.502 90.3614 149.824 90.4032 150.125 90.5145C150.426 90.6258 150.698 90.8038 150.92 91.0352C151.448 91.5007 151.852 92.09 152.096 92.7502C152.34 93.4104 152.416 94.1208 152.317 94.8177C153.178 94.9293 156.217 95.5296 156.211 98.6321C156.209 98.6815 156.187 98.7281 156.152 98.7625C156.117 98.797 156.069 98.8168 156.02 98.8181Z" fill="#FAFAFA"/>
    <path d="M156.02 93.5162C155.971 93.5163 155.923 93.4978 155.886 93.4643C155.85 93.4308 155.827 93.3848 155.823 93.3355C155.738 92.2092 155.085 90.7536 154.262 90.3923C154.098 90.3195 153.918 90.2957 153.741 90.324C153.565 90.3523 153.4 90.4315 153.268 90.5517C153.236 90.5726 153.198 90.5836 153.159 90.5836C153.121 90.5836 153.083 90.5726 153.05 90.5517C153.017 90.5332 152.989 90.5052 152.971 90.4712C152.953 90.4372 152.946 90.3987 152.949 90.3605C152.949 90.3605 153.125 88.3683 152.227 87.5448C152.032 87.3822 151.801 87.2684 151.554 87.2129C151.306 87.1575 151.049 87.162 150.803 87.226C150.769 87.2332 150.734 87.2311 150.701 87.2199C150.669 87.2087 150.639 87.1888 150.617 87.1623C150.594 87.1356 150.579 87.1034 150.572 87.0689C150.566 87.0345 150.569 86.9989 150.58 86.9657C150.761 86.4717 151.111 85.0851 150.638 84.591C150.415 84.3626 150.006 84.3413 149.416 84.5326C149.376 84.5459 149.333 84.5458 149.293 84.5324C149.252 84.519 149.218 84.493 149.193 84.4582C149.169 84.424 149.156 84.3832 149.156 84.3413C149.156 84.2994 149.169 84.2586 149.193 84.2244C149.523 83.8101 150.336 82.5988 150.134 82.0197C150.1 81.9397 150.046 81.87 149.977 81.8178C149.908 81.7655 149.827 81.7325 149.741 81.7222C149.715 81.716 149.692 81.7049 149.671 81.6895C149.65 81.6741 149.632 81.6547 149.619 81.6325C149.606 81.6103 149.597 81.5857 149.593 81.56C149.589 81.5344 149.591 81.5083 149.597 81.4831C149.602 81.4578 149.612 81.4338 149.627 81.4126C149.641 81.3914 149.66 81.3735 149.682 81.36C149.704 81.3465 149.729 81.3377 149.754 81.3342C149.78 81.3307 149.806 81.3326 149.831 81.3397C149.98 81.3614 150.121 81.4219 150.239 81.5152C150.358 81.6084 150.449 81.7311 150.506 81.871C150.723 82.5032 150.192 83.4647 149.82 83.996C150.012 83.9504 150.212 83.9523 150.402 84.0013C150.593 84.0504 150.769 84.1452 150.915 84.2776C151.499 84.8832 151.217 86.1635 151.042 86.7639C151.301 86.7329 151.564 86.7571 151.813 86.8349C152.062 86.9128 152.292 87.0424 152.487 87.2154C153.279 87.9379 153.364 89.3405 153.353 89.9833C153.519 89.9051 153.701 89.8646 153.884 89.8646C154.068 89.8646 154.249 89.9051 154.416 89.9833C155.42 90.4242 156.116 91.9914 156.217 93.2611C156.219 93.2867 156.216 93.3124 156.208 93.3368C156.2 93.3612 156.187 93.3837 156.17 93.403C156.153 93.4223 156.133 93.4381 156.11 93.4493C156.087 93.4605 156.062 93.467 156.036 93.4683L156.02 93.5162Z" fill="#FAFAFA"/>
    <path d="M167.463 69.3439C167.438 69.0618 167.338 68.7916 167.174 68.5609C167.01 68.3303 166.787 68.1476 166.528 68.0317L134.86 49.7458C134.156 49.3896 133.378 49.204 132.589 49.204C131.8 49.204 131.022 49.3896 130.318 49.7458L81.612 77.8706C81.3536 77.9865 81.1308 78.1692 80.9664 78.3998C80.8021 78.6305 80.7022 78.9007 80.677 79.1828V81.6425C80.7022 81.9246 80.8021 82.1949 80.9664 82.4255C81.1308 82.6561 81.3536 82.8388 81.612 82.9547L113.28 101.235C113.984 101.594 114.762 101.781 115.551 101.781C116.341 101.781 117.119 101.594 117.823 101.235L166.528 73.1158C166.787 72.9999 167.01 72.8172 167.174 72.5866C167.338 72.356 167.438 72.0857 167.463 71.8036V69.3439Z" fill="#37474F"/>
    <path d="M113.28 98.7756L81.6119 80.495C80.3582 79.7672 80.3582 78.5931 81.6119 77.8706L130.318 49.7458C131.022 49.3896 131.8 49.204 132.589 49.204C133.378 49.204 134.156 49.3896 134.86 49.7458L166.528 68.0317C167.787 68.7595 167.787 69.9283 166.528 70.6561L117.822 98.7756C117.119 99.1343 116.341 99.3213 115.551 99.3213C114.762 99.3213 113.984 99.1343 113.28 98.7756Z" fill="#455A64"/>
    <path opacity="0.1" d="M160.281 76.7179L145.374 95.1685L119.815 109.927L119.809 100.088L160.281 76.7179Z" fill="black"/>
    <path opacity="0.1" d="M158.15 105.002L145.374 122.22L119.815 136.984V127.139L158.15 105.002Z" fill="black"/>
    <path opacity="0.1" d="M158.15 132.059L145.374 149.277L119.815 164.041V154.196L158.15 132.059Z" fill="black"/>
    <path d="M99.5206 185.796L60.335 208.422L16.2087 182.885L55.3943 160.264L99.5206 185.796Z" fill="#E77176"/>
    <path opacity="0.5" d="M99.5206 185.796L60.335 208.422L16.2087 182.885L55.3943 160.264L99.5206 185.796Z" fill="black"/>
    <path d="M55.3943 129.594V160.264L16.2087 182.885V152.22L55.3943 129.594Z" fill="#E77176"/>
    <path opacity="0.23" d="M55.3943 129.594V160.264L16.2087 182.885V152.22L55.3943 129.594Z" fill="black"/>
    <path d="M60.335 177.752V208.422L16.2087 182.884V152.22L60.335 177.752Z" fill="#E77176"/>
    <path opacity="0.38" d="M60.335 177.752V208.422L16.2087 182.884V152.22L60.335 177.752Z" fill="black"/>
    <path d="M99.5206 155.126V185.796L55.3943 160.264V129.594L99.5206 155.126Z" fill="#E77176"/>
    <path opacity="0.4" d="M99.5206 155.126V185.796L55.3943 160.264V129.594L99.5206 155.126Z" fill="black"/>
    <path d="M99.5206 185.796V155.126L60.335 177.753V208.422L99.5206 185.796Z" fill="#E77176"/>
    <path opacity="0.23" d="M99.5206 185.796V155.126L60.335 177.753V208.422L99.5206 185.796Z" fill="black"/>
    <path d="M55.3943 129.594L55.4474 112.615L99.4675 138.179L99.5206 155.126L55.3943 129.594Z" fill="#E77176"/>
    <path opacity="0.2" d="M55.3943 129.594L55.4474 112.615L99.4675 138.179L99.5206 155.126L55.3943 129.594Z" fill="black"/>
    <path d="M60.335 177.752L64.0113 162.898L102.841 140.479L99.5206 155.126L60.335 177.752Z" fill="#E77176"/>
    <path opacity="0.3" d="M60.335 177.752L64.0113 162.898L102.841 140.479L99.5206 155.126L60.335 177.752Z" fill="black"/>
    <path d="M16.2087 152.22L11.5336 136.814L50.7192 114.193L55.3943 129.594L16.2087 152.22Z" fill="#E77176"/>
    <path opacity="0.1" d="M16.2087 152.22L11.5336 136.814L50.7192 114.193L55.3943 129.594L16.2087 152.22Z" fill="black"/>
    <path d="M16.2087 152.22L6.98603 139.486L51.1177 165.018L60.335 177.753L16.2087 152.22Z" fill="#E77176"/>
    <path opacity="0.45" d="M16.2087 152.22L6.98603 139.486L51.1177 165.018L60.335 177.753L16.2087 152.22Z" fill="black"/>
    <g opacity="0.7">
        <path opacity="0.7" d="M71.8739 199.3C71.81 199.3 71.7487 199.275 71.703 199.231C71.6573 199.186 71.6309 199.125 71.6295 199.061V193.664C71.6309 193.599 71.6571 193.538 71.7026 193.492C71.7482 193.447 71.8095 193.421 71.8739 193.419C71.9378 193.421 71.9986 193.447 72.0433 193.493C72.088 193.538 72.113 193.6 72.113 193.664V199.061C72.113 199.125 72.0878 199.185 72.043 199.23C71.9981 199.275 71.9373 199.3 71.8739 199.3Z" fill="white"/>
        <path opacity="0.7" d="M71.1674 195.534C71.1357 195.539 71.1034 195.539 71.0717 195.534C71.0137 195.507 70.9682 195.459 70.9445 195.4C70.9208 195.34 70.9207 195.274 70.9442 195.215L71.8049 193.233L72.7611 194.338C72.7954 194.388 72.8101 194.448 72.8026 194.508C72.7951 194.568 72.7659 194.622 72.7205 194.662C72.6751 194.701 72.6168 194.723 72.5566 194.722C72.4965 194.721 72.4388 194.698 72.3946 194.657L71.943 194.126L71.4117 195.401C71.3888 195.445 71.3533 195.481 71.3098 195.505C71.2662 195.528 71.2167 195.538 71.1674 195.534Z" fill="white"/>
        <path opacity="0.7" d="M74.0999 198.031C74.036 198.029 73.9752 198.003 73.9305 197.957C73.8859 197.912 73.8608 197.85 73.8609 197.786V192.394C73.8609 192.331 73.886 192.27 73.9309 192.225C73.9757 192.18 74.0365 192.155 74.0999 192.155C74.1633 192.155 74.2241 192.18 74.269 192.225C74.3138 192.27 74.339 192.331 74.339 192.394V197.781C74.3397 197.813 74.3341 197.845 74.3224 197.875C74.3108 197.905 74.2934 197.932 74.2712 197.955C74.249 197.978 74.2224 197.997 74.193 198.01C74.1637 198.023 74.132 198.03 74.0999 198.031Z" fill="white"/>
        <path opacity="0.7" d="M73.3933 194.264C73.3617 194.269 73.3294 194.269 73.2977 194.264C73.2685 194.251 73.2422 194.233 73.2202 194.21C73.1982 194.187 73.1811 194.16 73.1697 194.13C73.1583 194.101 73.153 194.069 73.154 194.037C73.155 194.005 73.1623 193.974 73.1755 193.945L74.0308 191.937L74.9871 193.037C75.0313 193.082 75.0559 193.143 75.0559 193.207C75.0559 193.27 75.0313 193.331 74.9871 193.377C74.9649 193.399 74.9384 193.417 74.9092 193.429C74.88 193.442 74.8487 193.448 74.8171 193.448C74.7855 193.448 74.7542 193.442 74.725 193.429C74.6958 193.417 74.6693 193.399 74.6471 193.377L74.1955 192.846L73.6643 194.121C73.6423 194.172 73.6034 194.214 73.5541 194.24C73.5048 194.266 73.4481 194.275 73.3933 194.264Z" fill="white"/>
    </g>
    <g opacity="0.7">
        <path opacity="0.7" d="M65.451 202.961C65.3602 202.962 65.2706 202.94 65.1907 202.897C65.0946 202.835 65.0168 202.749 64.9654 202.647C64.9141 202.546 64.8909 202.432 64.8985 202.318V201.654C64.8999 201.59 64.9262 201.529 64.9719 201.484C65.0176 201.44 65.079 201.415 65.1429 201.415C65.2063 201.415 65.2671 201.44 65.3119 201.485C65.3568 201.53 65.3819 201.59 65.3819 201.654V202.318C65.3819 202.414 65.3819 202.467 65.4298 202.477C65.4776 202.488 65.5041 202.477 65.5838 202.435C65.7333 202.297 65.8511 202.128 65.9291 201.94C66.0071 201.752 66.0433 201.549 66.0354 201.346V198.583C66.0354 198.52 66.0606 198.459 66.1054 198.414C66.1502 198.369 66.2111 198.344 66.2745 198.344C66.3379 198.344 66.3987 198.369 66.4435 198.414C66.4883 198.459 66.5135 198.52 66.5135 198.583V201.346C66.5254 201.633 66.4695 201.918 66.3505 202.179C66.2314 202.441 66.0525 202.67 65.8282 202.849C65.7147 202.919 65.5844 202.958 65.451 202.961Z" fill="white"/>
        <path opacity="0.7" d="M62.9169 200.735V200.32C62.9801 199.256 63.2911 198.222 63.8252 197.3C64.3592 196.377 65.1016 195.592 65.9929 195.008C66.8642 194.509 67.6929 194.434 68.3304 194.806C68.6705 195.039 68.9416 195.359 69.1154 195.733C69.2893 196.107 69.3594 196.521 69.3186 196.931V197.069L62.9169 200.735ZM67.4379 195.029C67.0126 195.049 66.5992 195.177 66.2373 195.401C65.4735 195.904 64.8267 196.565 64.3409 197.339C63.8551 198.114 63.5416 198.984 63.4216 199.89L68.8245 196.766C68.8476 196.459 68.7907 196.15 68.6595 195.871C68.5282 195.592 68.3271 195.351 68.0754 195.173C67.8792 195.07 67.6593 195.02 67.4379 195.029Z" fill="white"/>
    </g>
    <path opacity="0.7" d="M6.98603 139.486L51.1177 165.018L60.335 177.753L50.6289 165.47L6.98603 139.486Z" fill="white"/>
    <path opacity="0.7" d="M99.5206 155.126L60.335 177.753V208.422L61.0681 178.369L99.5206 155.126Z" fill="white"/>
    <path d="M42.0172 142.859C46.0601 142.275 49.7523 139.672 52.1111 136.399C53.2111 134.87 54.0214 133.152 54.5017 131.331C55.0119 129.628 55.0958 127.825 54.7461 126.082C54.0183 123.166 51.3195 121.439 48.4667 121.078C47.019 120.887 45.547 121.031 44.1635 121.497C42.7289 121.99 41.4843 122.919 40.604 124.154C40.0521 124.812 39.7049 125.617 39.6053 126.47C39.5968 126.804 39.7146 127.129 39.9351 127.38C40.1557 127.631 40.4629 127.79 40.7953 127.825C41.6507 127.897 42.5056 127.68 43.2231 127.208C44.0981 126.718 44.8687 126.061 45.4916 125.275C46.8279 123.626 47.8278 121.73 48.4348 119.696C48.8607 117.951 48.8607 116.129 48.4348 114.384C48.1112 112.558 47.2768 110.862 46.0282 109.491C44.5968 108.189 42.7803 107.389 40.8537 107.212C38.9363 106.948 36.9839 107.13 35.148 107.743C34.3416 107.988 33.5946 108.396 32.9539 108.944C32.497 109.369 31.9764 110.07 32.1623 110.761C32.3483 111.451 33.3577 111.759 34.043 111.669C35.0573 111.479 35.9863 110.976 36.6993 110.229C37.4938 109.447 38.1687 108.552 38.7021 107.573C39.0984 106.87 39.3053 106.075 39.3024 105.268C39.2334 101.899 35.5093 99.7212 32.5927 99.1049C31.8053 98.9404 30.9989 98.8868 30.1967 98.9455C29.9257 98.9455 30.0904 99.3918 30.3082 99.3759C31.8777 99.3045 33.4375 99.6569 34.8239 100.396C36.1918 101.025 37.3406 102.048 38.123 103.334C38.4717 103.968 38.6438 104.684 38.6214 105.407C38.599 106.13 38.3828 106.834 37.9955 107.446C37.4754 108.352 36.8277 109.178 36.0724 109.9C35.4402 110.474 34.4786 111.138 33.5914 111.074C33.4449 111.074 33.3015 111.032 33.1775 110.954C33.0535 110.876 32.9539 110.765 32.8902 110.633C32.8634 110.459 32.8778 110.28 32.9322 110.113C32.9866 109.945 33.0796 109.792 33.2036 109.666C33.6727 109.161 34.2529 108.772 34.8983 108.529C36.4921 107.867 38.2179 107.583 39.94 107.701C41.7146 107.733 43.4405 108.287 44.9019 109.294C46.175 110.352 47.0792 111.786 47.4838 113.39C47.9964 115.02 48.1558 116.741 47.9513 118.437C47.6358 120.144 46.98 121.771 46.0229 123.219C45.04 124.844 43.8075 126.406 41.9587 127.044C41.5019 127.208 40.5456 127.448 40.365 126.783C40.1843 126.119 40.705 125.301 41.0397 124.786C41.7798 123.621 42.8588 122.711 44.1316 122.177C45.3598 121.685 46.6857 121.485 48.0045 121.593C50.5067 121.779 53.0461 123.086 53.9174 125.572C54.3544 127.058 54.402 128.631 54.0555 130.141C53.743 131.796 53.1481 133.384 52.297 134.837C50.4663 137.925 47.6937 140.343 44.3866 141.738C43.6003 142.078 42.7928 142.365 41.9694 142.631C41.8844 142.663 41.9215 142.875 42.0172 142.859Z" fill="#E0E0E0"/>
    <path d="M25.1285 96.7356C23.0035 96.5816 20.0762 98.255 21.1175 99.4769C22.1588 100.699 24.9213 98.7225 24.9213 98.7225C24.9213 98.7225 24.661 101.193 25.5641 101.474C26.4673 101.756 27.6892 99.3972 26.786 97.8884C27.2216 98.0602 27.6935 98.119 28.1579 98.0596C28.6222 98.0001 29.0641 97.8243 29.4423 97.5484C30.728 96.6028 29.368 95.7103 27.5564 95.8697C27.5564 95.8697 28.8526 91.6196 26.2335 92.4324C24.9213 92.8309 24.4591 94.3662 25.1285 96.7356Z" fill="#E77176"/>
    <path opacity="0.65" d="M25.1285 96.7356C23.0035 96.5816 20.0762 98.255 21.1175 99.4769C22.1588 100.699 24.9213 98.7225 24.9213 98.7225C24.9213 98.7225 24.661 101.193 25.5641 101.474C26.4673 101.756 27.6892 99.3972 26.786 97.8884C27.2216 98.0602 27.6935 98.119 28.1579 98.0596C28.6222 98.0001 29.0641 97.8243 29.4423 97.5484C30.728 96.6028 29.368 95.7103 27.5564 95.8697C27.5564 95.8697 28.8526 91.6196 26.2335 92.4324C24.9213 92.8309 24.4591 94.3662 25.1285 96.7356Z" fill="white"/>
    <path d="M27.1048 97.6388C26.9872 97.5236 26.863 97.4154 26.7329 97.3147C26.5469 97.1712 26.3504 97.0331 26.1644 96.895C25.9834 96.7634 25.7935 96.6444 25.596 96.539C25.4823 96.476 25.3653 96.4192 25.2454 96.3691C25.0798 96.2913 24.8957 96.2618 24.7141 96.284C24.6665 96.2854 24.6202 96.2995 24.5799 96.3249C24.5397 96.3503 24.507 96.386 24.4852 96.4284C24.4635 96.4707 24.4536 96.5181 24.4564 96.5656C24.4593 96.6131 24.4749 96.659 24.5016 96.6984C24.6476 96.8566 24.83 96.977 25.0329 97.0491L25.3197 97.2031C25.5163 97.32 25.6916 97.4528 25.851 97.5856C26.0104 97.7184 26.2229 97.8459 26.3822 97.9788C26.6563 98.201 26.9626 98.3802 27.2907 98.51C27.3054 98.5179 27.3218 98.5221 27.3385 98.5221C27.3552 98.5221 27.3716 98.5179 27.3863 98.51C27.6573 98.2975 27.2588 97.7928 27.1048 97.6388Z" fill="#455A64"/>
    <path d="M196.475 38.2919C194.154 41.4157 191.046 58.5913 189.872 64.1004C184.225 63.9358 176.67 63.6701 173.812 63.3726C170.624 63.0379 163.819 62.3845 160.477 62.8414C152.184 63.9039 152.508 69.3546 152.71 70.7784C152.928 72.404 154.092 73.1478 158.554 72.1331C159.553 71.9136 160.571 71.7944 161.593 71.7771C162.023 71.7771 162.932 71.5593 163.272 71.9259C163.803 72.4571 162.268 73.3497 161.885 73.594C161.295 73.9766 160.679 74.46 160.557 75.1506C160.522 75.2769 160.524 75.4106 160.562 75.5358C160.601 75.661 160.675 75.7726 160.775 75.8572C160.991 75.9455 161.233 75.9455 161.449 75.8572C163.486 75.3738 165.451 74.6254 167.293 73.6312C167.988 73.2125 168.719 72.8569 169.477 72.5687C170.63 72.1968 171.82 72.4146 172.978 72.4146C175.469 72.4146 188.639 73.7215 194.494 74.3166C198.547 74.7256 198.978 70.7252 200.375 66.6717C202.091 61.646 206.155 35.2159 206.155 35.2159C202.054 34.6209 199.238 34.5837 196.475 38.2919Z" fill="#FFA8A7"/>
    <path d="M206.219 34.8015C204.258 34.4402 199.843 33.893 197.442 36.5759C195.041 39.2587 194.472 42.0744 193.415 46.1385C192.358 50.2026 190.483 57.4809 190.483 57.4809C190.483 57.4809 193.58 61.9275 203.275 60.6684L206.219 34.8015Z" fill="#37474F"/>
    <path d="M230.566 175.277L223.75 175.282L221.79 160.487L230.391 160.147L230.566 175.277Z" fill="#FFA8A7"/>
    <path d="M207.935 167.887C206.776 169.901 203.052 169.736 199.966 169.024L199.61 154.478L208.721 154.117L207.935 167.887Z" fill="#FFA8A7"/>
    <path d="M230.104 81.786C230.348 88.0814 229.514 125.307 229.514 125.307C229.743 127.113 231.613 130.263 232.001 136.782C232.569 146.249 230.641 166.437 230.641 166.437C230.641 166.437 226.736 168.477 222.528 166.915C222.528 166.915 218.246 137.696 216.684 128.356C215.335 120.228 213.603 98.425 213.603 98.425L210.24 126.369C210.857 129.677 211.112 133.042 211 136.405C210.862 140.75 208.386 161.852 208.386 161.852C205.562 162.776 202.528 162.848 199.663 162.059C199.663 162.059 197.633 129.312 197.4 125.344C197.134 120.818 197.315 80.8616 197.315 80.8616L230.104 81.786Z" fill="#E77176"/>
    <path opacity="0.2" d="M213.614 98.4356C213.614 98.4356 207.658 96.7462 203.599 93.123C203.599 93.123 205.501 96.369 210.888 99.2485L210.58 123.639L213.614 98.4356Z" fill="black"/>
    <path d="M215.983 187.618C215.765 187.841 215.893 189.313 216.158 189.695C216.424 190.078 218.05 191.374 220.871 191.47C223.564 191.555 225.944 191.098 227.48 190.035C229.015 188.973 229.737 187.841 229.828 186.316C229.918 184.792 229.69 183.31 230.359 182.104C230.991 180.993 232.017 179.724 232.224 179.123C232.686 177.822 232.123 176.01 232.123 176.01L215.983 187.618Z" fill="#263238"/>
    <path d="M222.783 173.981C222.787 174.562 222.704 175.14 222.539 175.697C221.962 177.508 221.096 179.215 219.973 180.749C219.197 181.742 218.22 182.576 217.396 183.538C216.515 184.45 215.975 185.637 215.866 186.901C215.834 189.026 218.151 189.637 219.92 189.881C221.837 190.134 223.787 189.953 225.625 189.35C226.594 189.058 227.457 188.493 228.111 187.722C228.765 186.951 229.182 186.007 229.312 185.004C229.387 184.415 229.312 183.82 229.376 183.23C229.556 181.875 230.069 180.587 230.869 179.479C231.332 178.838 231.727 178.151 232.048 177.429C232.542 176.1 232.048 174.65 231.645 173.37C231.299 172.259 230.906 171 230.518 171.122C230.518 171.712 230.518 171.765 230.141 172.185C229.61 172.716 229.636 173.455 229.079 173.917C229.24 173.427 229.35 172.921 229.408 172.408C229.434 172.199 229.383 171.987 229.265 171.813C229.073 171.657 228.847 171.548 228.606 171.494C227.766 171.246 226.902 171.084 226.029 171.011C225.198 170.902 224.355 170.929 223.532 171.091C223.289 171.147 223.072 171.284 222.916 171.478C222.779 171.696 222.711 171.949 222.719 172.206C222.719 172.552 222.778 173.418 222.783 173.981Z" fill="#455A64"/>
    <path d="M220.764 179.575C221.529 178.959 223.283 178.879 224.249 178.948C225.229 178.992 226.182 179.285 227.017 179.798C227.141 179.88 227.289 179.916 227.436 179.898C227.583 179.881 227.719 179.811 227.82 179.702C227.878 179.64 227.923 179.566 227.95 179.485C227.977 179.405 227.987 179.319 227.978 179.234C227.969 179.149 227.941 179.067 227.897 178.994C227.854 178.921 227.794 178.858 227.724 178.81C226.801 178.184 225.72 177.83 224.605 177.79C222.236 177.721 221.561 178.151 221.561 178.151C221.561 178.151 220.504 178.884 220.764 179.575Z" fill="#F5F5F5"/>
    <path d="M219.043 181.806C220.005 181.184 221.944 181.19 222.905 181.275C223.869 181.336 224.8 181.649 225.604 182.183C225.727 182.265 225.874 182.3 226.02 182.283C226.167 182.265 226.302 182.196 226.401 182.088C226.461 182.026 226.507 181.953 226.535 181.872C226.563 181.791 226.573 181.705 226.565 181.62C226.556 181.535 226.529 181.453 226.485 181.379C226.441 181.306 226.382 181.243 226.311 181.195C225.372 180.537 224.268 180.154 223.123 180.09C220.749 180.016 220.154 180.52 220.154 180.52C219.884 180.637 219.644 180.814 219.451 181.036C219.259 181.259 219.12 181.522 219.043 181.806Z" fill="#F5F5F5"/>
    <path d="M225.455 175.495C224.453 175.358 223.432 175.482 222.491 175.856C222.087 176.106 221.838 176.775 222.109 176.918C222.931 176.549 223.833 176.388 224.733 176.451C225.622 176.503 226.495 176.708 227.315 177.057C227.522 177.136 227.766 177.253 227.979 177.359C228.047 177.394 228.121 177.415 228.198 177.42C228.274 177.425 228.35 177.415 228.422 177.389C228.494 177.364 228.56 177.324 228.617 177.272C228.673 177.221 228.718 177.158 228.749 177.088C228.8 176.968 228.804 176.833 228.76 176.709C228.717 176.586 228.63 176.482 228.516 176.419C227.574 175.895 226.53 175.579 225.455 175.495Z" fill="#F5F5F5"/>
    <path d="M184.389 176.961C184.148 177.568 184.148 178.245 184.389 178.852C184.623 179.421 187.439 181.184 191.349 181.11C194.256 181.039 197.092 180.192 199.562 178.656C201.097 177.742 202.654 177.63 204.588 177.593C206.521 177.556 209.103 176.732 209.571 175.851C210.038 174.969 209.624 173.391 209.624 173.391L184.389 176.961Z" fill="#263238"/>
    <path d="M200.699 165.539L200.396 165.459C200.224 165.407 200.043 165.391 199.865 165.411C199.673 165.457 199.501 165.561 199.371 165.709C198.969 166.18 198.613 166.689 198.308 167.228C197.432 168.519 195.652 169.545 193.739 170.464C192.432 171.085 191.163 171.558 189.819 172.084C188.475 172.61 186.631 172.907 185.569 173.566C183.975 174.528 183.672 177.104 185.361 178.209C186.828 179.166 190.738 180.308 194.924 179.33C197.214 178.799 199.838 176.504 202.813 176.414C204.71 176.355 208.301 175.994 209.581 174.618C210.065 174.007 209.581 171.962 209.151 170.198C208.705 168.275 208.907 165.417 208.046 165.417L207.993 166.378C207.913 166.665 207.239 166.947 207.026 167.17L206.261 167.977C205.948 168.351 205.565 168.661 205.135 168.891C204.375 169.231 203.488 169.029 202.675 168.817C202.643 168.817 203.084 167.34 203.132 167.196C203.18 167.084 203.195 166.961 203.175 166.84C203.134 166.723 203.053 166.623 202.946 166.559C202.275 166.067 201.51 165.72 200.699 165.539Z" fill="#455A64"/>
    <path d="M195.556 169.518C195.705 169.265 195.915 169.053 196.166 168.902C196.417 168.751 196.703 168.665 196.996 168.652C197.862 168.535 199.344 169.236 200.253 170.06C200.338 170.137 200.404 170.234 200.443 170.342C200.483 170.451 200.495 170.567 200.48 170.681C200.464 170.795 200.42 170.904 200.353 170.998C200.286 171.091 200.197 171.167 200.093 171.218C199.964 171.282 199.817 171.304 199.674 171.282C199.532 171.259 199.399 171.192 199.296 171.091C198.302 170.1 196.96 169.536 195.556 169.518Z" fill="#F5F5F5"/>
    <path d="M192.826 170.883C193.025 170.629 193.282 170.426 193.576 170.292C193.87 170.158 194.192 170.096 194.515 170.113C194.515 170.113 196.757 170.283 198.08 171.643C198.161 171.718 198.224 171.811 198.262 171.915C198.299 172.019 198.312 172.13 198.297 172.24C198.282 172.349 198.241 172.454 198.178 172.544C198.114 172.635 198.029 172.708 197.931 172.759C197.806 172.82 197.664 172.841 197.527 172.819C197.389 172.797 197.261 172.733 197.161 172.636C196.616 172.037 195.944 171.569 195.193 171.265C194.443 170.961 193.633 170.831 192.826 170.883Z" fill="#F5F5F5"/>
    <path d="M189.824 172.084C190.05 171.85 190.323 171.668 190.626 171.55C190.928 171.432 191.253 171.38 191.577 171.399C192.847 171.539 194.041 172.076 194.988 172.934C195.069 173.009 195.132 173.103 195.17 173.207C195.207 173.311 195.219 173.423 195.205 173.533C195.19 173.643 195.149 173.748 195.086 173.839C195.022 173.93 194.937 174.004 194.839 174.055C194.713 174.117 194.572 174.138 194.433 174.115C194.295 174.092 194.168 174.027 194.069 173.927C193.553 173.311 192.901 172.824 192.164 172.504C191.427 172.184 190.626 172.04 189.824 172.084Z" fill="#F5F5F5"/>
    <path d="M217.577 34.9184C220.084 35.2053 223.049 35.3594 225.445 35.6728C228.531 36.0766 230.938 39.2694 231.692 44.2101C232.521 49.6502 229.036 65.248 229.036 65.248L230.146 83.6401C225.625 86.9711 206.373 88.719 196.778 81.7914C196.778 81.7914 197.001 50.4896 197.75 45.6658C198.781 39.0516 200.407 34.945 207.844 34.4722L217.577 34.9184Z" fill="#455A64"/>
    <path d="M234.721 74.7628C233.908 76.1228 233.09 77.4828 232.25 78.8269C231.942 79.3263 231.629 79.8204 231.305 80.3091C231.129 80.5484 230.924 80.7643 230.694 80.9519C230.29 81.2282 229.451 81.0529 228.962 81.0688C226.56 81.1503 224.166 81.3274 221.779 81.6001C221.579 81.5938 221.381 81.6315 221.197 81.7105C221.014 81.7894 220.85 81.9077 220.717 82.057C220.619 82.2627 220.599 82.4971 220.662 82.7163C220.724 82.9354 220.865 83.1241 221.057 83.247C221.448 83.4817 221.892 83.6133 222.348 83.6295L224.42 83.8739C224.715 83.8838 225.002 83.9758 225.248 84.1395C226.003 84.7504 224.563 85.4836 224.133 85.7811C223.267 86.3823 222.343 86.8949 221.375 87.3111C217.056 89.128 216.53 90.4455 217.327 91.9437C218.018 93.2453 221.004 97.9788 228.59 93.904C231.645 92.2624 236.293 87.0774 238.413 84.5698C241.462 80.9519 246.621 72.8821 246.621 72.8821C249.553 68.8552 249.931 67.203 250 65.5295C250.069 63.856 240.968 50.9837 237.876 46.4626C234.784 41.9416 233.313 36.4431 225.445 35.6887C225.445 35.6887 222.449 45.1876 227.411 51.3343L238.87 67.3198C238.87 67.3198 235.836 72.8981 234.721 74.7628Z" fill="#FFA8A7"/>
    <path d="M243.035 52.5934C241.563 50.4684 240.028 48.2796 238.546 46.1121C232.303 37.001 232.829 35.3328 223.83 35.2053C223.033 36.4272 222.56 41.6867 223.761 46.9674C224.765 51.4034 228.542 54.5325 228.542 54.5325L233.047 60.6367C233.047 60.6367 235.804 60.5517 239.109 58.1291C241.017 56.7923 242.404 54.8365 243.035 52.5934Z" fill="#37474F"/>
    <path d="M223.511 10.9745C223.059 10.3004 222.432 9.76154 221.697 9.4154C220.963 9.06925 220.149 8.92875 219.341 9.00884L218.873 20.415L218.108 24.6278L218.241 29.3189C218.685 29.2561 219.106 29.0818 219.465 28.8124C219.823 28.543 220.108 28.1872 220.292 27.7782C220.993 26.4288 222.948 19.905 222.948 19.905C224.701 14.5446 224.329 12.122 223.511 10.9745Z" fill="#263238"/>
    <path d="M218.342 20.4681C218.539 19.7749 218.919 19.1474 219.442 18.6512C220.095 17.95 222.698 17.1903 223.883 19.4003C225.068 21.6103 223.07 24.527 221.529 25.4195C219.558 26.567 218.4 25.0051 218.4 25.0051L218.448 35.5081C217.529 37.6331 213.38 39.5244 210.91 39.2269C208.944 38.9772 207.132 37.4312 208.891 35.1787L208.747 32.1824C208.747 32.1824 206.118 32.7136 204.816 32.5808C202.654 32.3577 201.214 30.7267 200.449 28.4317C199.217 24.7448 198.669 21.7485 199.19 14.3534C199.764 6.25167 209.13 5.70447 214.352 8.63702C219.574 11.5696 218.342 20.4681 218.342 20.4681Z" fill="#FFA8A7"/>
    <path d="M196.21 5.93821C195.971 4.16912 196.582 2.27253 198.436 1.64564C199.116 1.36101 199.863 1.27433 200.59 1.39558C201.318 1.51682 201.996 1.84106 202.548 2.33096C202.78 1.70684 203.182 1.15992 203.708 0.751659C204.234 0.343398 204.864 0.0899816 205.526 0.019888C206.189 -0.0502055 206.857 0.0658025 207.457 0.354875C208.057 0.643948 208.565 1.09463 208.923 1.65627C209.415 0.908243 210.176 0.377695 211.048 0.174055C211.585 0.0539948 212.142 0.0429101 212.684 0.141457C213.226 0.240004 213.742 0.446183 214.203 0.747813C214.958 1.30563 215.845 2.34159 215.622 3.68567C217.115 3.08535 218.671 3.58473 219.782 4.90225C220.442 5.70905 220.816 6.71264 220.844 7.75511C220.883 8.29659 220.805 8.84002 220.616 9.34889C220.403 9.83233 219.968 10.1511 219.84 10.6983C219.655 11.1797 219.559 11.6911 219.558 12.2071C219.681 13.0996 219.877 13.9921 219.994 14.8633C220.12 15.7311 220.193 16.6058 220.212 17.4825C220.184 17.6886 220.112 17.8864 220.002 18.0624C219.891 18.2384 219.743 18.3885 219.569 18.5025C219.073 18.9362 218.689 19.4829 218.448 20.0962C218.262 20.4788 218.082 21.4244 217.715 21.69C216.583 22.4816 216.456 19.9209 216.403 19.4269C216.33 18.2929 216.33 17.1555 216.403 16.0215C215.832 16.0141 215.269 15.8874 214.751 15.6495C214.232 15.4116 213.769 15.0678 213.391 14.6402C212.999 14.1597 212.74 13.5843 212.641 12.9721C212.58 12.6213 212.552 12.2656 212.556 11.9096C211.818 13.1314 210.102 13.6308 208.88 13.5033C206.83 13.3174 206.123 12.4408 205.794 11.798C205.664 12.4316 205.385 13.0253 204.981 13.5299C204.457 14.0221 203.826 14.3859 203.137 14.5924C202.543 14.7509 201.918 14.7446 201.327 14.5743C200.736 14.4039 200.203 14.0759 199.785 13.6255C198.951 14.8208 196.837 14.2896 196.369 13.9549C195.307 13.1846 194.961 12.2655 194.844 10.9533C194.727 9.64108 195.259 8.14293 196.714 7.62761C196.452 7.097 196.281 6.52579 196.21 5.93821Z" fill="#263238"/>
    <path d="M208.747 32.1665C208.747 32.1665 213.497 30.9658 215.122 29.9883C216.084 29.4253 216.853 28.5845 217.327 27.5764C217.122 28.5708 216.719 29.5139 216.142 30.3496C214.995 31.9805 208.801 33.4468 208.801 33.4468L208.747 32.1665Z" fill="#F28F8F"/>
    <path d="M209.013 20.1175C209.031 20.3187 209.108 20.5102 209.234 20.6683C209.359 20.8263 209.529 20.9438 209.721 21.0062C209.913 21.0686 210.12 21.0732 210.314 21.0194C210.509 20.9655 210.684 20.8556 210.816 20.7034C210.949 20.5511 211.034 20.3632 211.061 20.1629C211.088 19.9627 211.055 19.759 210.967 19.5771C210.879 19.3953 210.74 19.2433 210.566 19.14C210.393 19.0368 210.192 18.9869 209.991 18.9965C209.713 19.0183 209.456 19.1479 209.273 19.3575C209.09 19.567 208.997 19.8399 209.013 20.1175Z" fill="#263238"/>
    <path d="M207.425 27.8048C207.449 28.064 207.549 28.3103 207.712 28.5131C207.875 28.716 208.094 28.8664 208.342 28.9458C208.59 29.0251 208.856 29.0298 209.106 28.9594C209.357 28.8889 209.581 28.7463 209.752 28.5494C209.922 28.3525 210.031 28.1098 210.064 27.8517C210.097 27.5935 210.054 27.3312 209.94 27.0974C209.826 26.8635 209.645 26.6684 209.421 26.5363C209.196 26.4042 208.938 26.341 208.678 26.3544C208.321 26.383 207.989 26.5511 207.754 26.8225C207.519 27.0939 207.401 27.4468 207.425 27.8048Z" fill="#F28F8F"/>
    <path d="M209.868 16.5793L212.057 17.6418C212.193 17.3418 212.209 17.0009 212.102 16.6895C211.994 16.3781 211.771 16.1199 211.478 15.9683C211.333 15.8989 211.175 15.8597 211.014 15.853C210.853 15.8463 210.693 15.8723 210.542 15.9294C210.392 15.9865 210.255 16.0735 210.139 16.1852C210.023 16.2969 209.931 16.431 209.868 16.5793Z" fill="#263238"/>
    <path d="M200.348 17.4985L202.213 15.9047C202.116 15.7775 201.993 15.6716 201.854 15.5934C201.714 15.5153 201.56 15.4665 201.401 15.45C201.242 15.4336 201.081 15.4499 200.928 15.498C200.775 15.546 200.634 15.6248 200.513 15.7294C200.264 15.9471 200.108 16.2519 200.078 16.5811C200.047 16.9102 200.144 17.2386 200.348 17.4985Z" fill="#263238"/>
    <path d="M200.906 19.9104C200.919 20.1069 200.989 20.2952 201.109 20.4517C201.229 20.6082 201.392 20.7259 201.578 20.7899C201.764 20.8539 201.965 20.8614 202.156 20.8115C202.346 20.7616 202.518 20.6564 202.649 20.5093C202.78 20.3622 202.864 20.1797 202.892 19.9847C202.919 19.7897 202.888 19.5909 202.803 19.4133C202.718 19.2358 202.582 19.0873 202.413 18.9867C202.244 18.8861 202.048 18.8378 201.852 18.8479C201.586 18.8656 201.338 18.987 201.162 19.1857C200.985 19.3844 200.893 19.6447 200.906 19.9104Z" fill="#263238"/>
    <path d="M205.836 18.731L205.804 25.0157L202.479 24.0595L205.836 18.731Z" fill="#F28F8F"/>
    <path d="M197.49 27.5232C197.521 27.5164 197.55 27.5035 197.575 27.4853C197.601 27.467 197.622 27.4438 197.639 27.417C197.658 27.3907 197.671 27.3609 197.678 27.3294C197.685 27.2978 197.686 27.2651 197.68 27.2334C197.674 27.2016 197.661 27.1713 197.643 27.1444C197.625 27.1176 197.602 27.0946 197.575 27.077L194.685 25.1538C194.658 25.1359 194.628 25.1235 194.596 25.1173C194.565 25.111 194.532 25.1111 194.501 25.1176C194.469 25.124 194.439 25.1366 194.412 25.1547C194.386 25.1728 194.363 25.1959 194.345 25.2229C194.326 25.2495 194.313 25.2796 194.307 25.3114C194.3 25.3431 194.3 25.3759 194.306 25.4077C194.313 25.4396 194.326 25.4697 194.344 25.4964C194.363 25.5231 194.386 25.5457 194.414 25.5629L197.299 27.4861C197.326 27.506 197.357 27.5196 197.39 27.5261C197.423 27.5325 197.457 27.5315 197.49 27.5232Z" fill="#E0E0E0"/>
    <path d="M197.182 28.7664C197.227 28.7553 197.268 28.732 197.301 28.6993C197.333 28.6665 197.357 28.6255 197.368 28.5805C197.382 28.5164 197.371 28.4493 197.336 28.3936C197.301 28.3379 197.246 28.2982 197.182 28.283L193.803 27.502C193.772 27.4941 193.739 27.4925 193.707 27.4974C193.675 27.5022 193.644 27.5133 193.617 27.5301C193.589 27.5469 193.565 27.5691 193.546 27.5953C193.527 27.6214 193.513 27.6512 193.506 27.6827C193.491 27.7467 193.503 27.8139 193.538 27.8696C193.572 27.9253 193.628 27.965 193.692 27.9802L197.07 28.7664C197.107 28.7717 197.145 28.7717 197.182 28.7664Z" fill="#E0E0E0"/>
    <path d="M194.042 31.0137H194.074L197.331 29.8236C197.392 29.8011 197.442 29.7551 197.469 29.6959C197.497 29.6366 197.499 29.5688 197.477 29.5075C197.454 29.4463 197.408 29.3964 197.349 29.369C197.29 29.3416 197.222 29.3389 197.161 29.3615L193.904 30.5515C193.873 30.5627 193.845 30.5799 193.822 30.602C193.798 30.6242 193.779 30.651 193.765 30.6807C193.752 30.7104 193.745 30.7424 193.744 30.775C193.743 30.8075 193.749 30.8399 193.761 30.8702C193.783 30.9236 193.824 30.9673 193.875 30.9936C193.927 31.0198 193.986 31.027 194.042 31.0137Z" fill="#E0E0E0"/>
    <path d="M166.491 56.4981C166.558 56.6329 166.663 56.745 166.794 56.8206C166.924 56.8962 167.074 56.932 167.224 56.9236C167.374 56.9151 167.519 56.8627 167.64 56.7729C167.761 56.6831 167.853 56.5599 167.904 56.4184L170.327 50.4417C170.366 50.3459 170.386 50.2431 170.384 50.1396C170.383 50.036 170.361 49.9338 170.319 49.839C170.277 49.7442 170.217 49.6588 170.142 49.5879C170.066 49.5169 169.977 49.462 169.88 49.4262C169.783 49.3905 169.679 49.3747 169.576 49.3799C169.472 49.385 169.371 49.4109 169.278 49.4561C169.185 49.5014 169.102 49.5649 169.034 49.6429C168.965 49.721 168.914 49.812 168.882 49.9105L166.454 55.8871C166.418 55.9861 166.403 56.0914 166.409 56.1964C166.416 56.3015 166.443 56.4042 166.491 56.4981Z" fill="#E0E0E0"/>
    <path d="M162.501 56.4661C162.579 56.6227 162.707 56.7484 162.865 56.8225C163.023 56.8966 163.202 56.9148 163.372 56.8741C163.542 56.8333 163.693 56.736 163.8 56.5982C163.907 56.4603 163.964 56.2901 163.962 56.1155L163.883 48.6778C163.867 48.4853 163.779 48.3058 163.637 48.1749C163.494 48.0441 163.308 47.9714 163.115 47.9714C162.922 47.9714 162.736 48.0441 162.593 48.1749C162.451 48.3058 162.363 48.4853 162.347 48.6778L162.422 56.1155C162.42 56.237 162.447 56.3571 162.501 56.4661Z" fill="#E0E0E0"/>
    <path d="M155.738 52.3276L155.786 52.4179L159.447 57.7305C159.56 57.8987 159.735 58.0154 159.934 58.0552C160.133 58.095 160.34 58.0547 160.509 57.943C160.674 57.827 160.788 57.6516 160.827 57.4535C160.865 57.2554 160.826 57.0501 160.716 56.8805L157.056 51.5679C156.949 51.4031 156.783 51.2856 156.593 51.2397C156.402 51.1938 156.201 51.223 156.031 51.3213C155.861 51.4195 155.735 51.5793 155.68 51.7676C155.624 51.9559 155.643 52.1583 155.733 52.3329L155.738 52.3276Z" fill="#E0E0E0"/>
</svg>
